<svg style="display:none">

  <defs>


    <svg id="add" xmlns="http://www.w3.org/2000/svg" viewBox="0 0 24 24"><path d="M0 0h24v24H0V0z" fill="none"/><path d="M19 3H5c-1.11 0-2 .9-2 2v14c0 1.1.89 2 2 2h14c1.1 0 2-.9 2-2V5c0-1.1-.9-2-2-2zm0 16H5V5h14v14zm-8-2h2v-4h4v-2h-4V7h-2v4H7v2h4z"/></svg>
  </defs>
  <defs>
    <svg id="trash" xmlns="http://www.w3.org/2000/svg" viewBox="0 0 24 24">
      <path d="M0 0h24v24H0z" fill="none" />
      <path d="M6 19c0 1.1.9 2 2 2h8c1.1 0 2-.9 2-2V7H6v12zM19 4h-3.5l-1-1h-5l-1 1H5v2h14V4z" />
    </svg>
  </defs>
  <defs>
    <svg id="edit" xmlns="http://www.w3.org/2000/svg" viewBox="0 0 24 24">
      <path d="M0 0h24v24H0z" fill="none" />
      <path
        d="M3 17.25V21h3.75L17.81 9.94l-3.75-3.75L3 17.25zM20.71 7.04c.39-.39.39-1.02 0-1.41l-2.34-2.34c-.39-.39-1.02-.39-1.41 0l-1.83 1.83 3.75 3.75 1.83-1.83z" />
    </svg>
  </defs>
</svg>
